<?xml version="1.0" encoding="UTF-8"?>
<svg id="Capa_1" data-name="Capa 1" xmlns="http://www.w3.org/2000/svg" viewBox="0 0 474.954 236.5421">
  <defs>
    <style>
      .cls-1 {
        fill: #4a0074;
      }

      .cls-2 {
        fill: #ffd000;
      }
    </style>
  </defs>
  <g>
    <path class="cls-1" d="m56.88115,139.33042v71.98469h-12.08973l-.27684-7.47471c-3.5069,5.25998-9.04448,8.39801-16.704,8.39801-13.47393,0-23.81059-10.24462-23.81059-25.56366,0-15.59738,10.33665-26.02606,23.81059-26.02606,7.56749,0,13.01228,3.04525,16.51919,8.12117v-29.43944h12.55138Zm-12.55138,47.06749c0-8.95319-5.53682-15.0437-13.65875-15.0437-8.2132,0-13.658,6.09051-13.658,15.13498,0,8.9517,5.44479,14.95092,13.658,14.95092,8.12192,0,13.65875-5.99922,13.65875-15.0422Z"/>
    <path class="cls-1" d="m68.50699,146.06739c0-4.33818,3.13728-7.47471,7.47471-7.47471,4.33818,0,7.38343,3.13654,7.38343,7.47471s-3.04525,7.38343-7.38343,7.38343c-4.33743,0-7.47471-3.04525-7.47471-7.38343Zm1.1994,15.5046h12.55138v49.74312h-12.55138v-49.74312Z"/>
    <path class="cls-1" d="m145.1037,161.57199v45.03682c0,15.68866-11.72011,25.93328-29.43944,25.93328-8.85967,0-16.51994-2.12345-22.14954-6.27606l2.76916-9.875c5.53682,3.783,11.90492,5.35276,19.01076,5.35276,10.33665,0,17.25843-5.99922,17.25843-15.22776v-2.39879c-3.5069,5.07592-8.95245,8.12117-16.51994,8.12117-13.47393,0-23.81059-10.42868-23.81059-26.02606,0-15.41182,10.33665-25.56366,23.81059-25.56366,7.66027,0,13.19709,3.13803,16.704,8.39801l.27684-7.47471h12.08973Zm-12.55063,24.82592c0-9.04448-5.53757-15.0437-13.65875-15.0437-8.21395,0-13.65875,5.99922-13.65875,14.95092,0,9.13576,5.44479,15.13498,13.65875,15.13498,8.12117,0,13.65875-5.99922,13.65875-15.0422Z"/>
    <path class="cls-1" d="m156.63676,146.06739c0-4.33818,3.13728-7.47471,7.47471-7.47471,4.33818,0,7.38343,3.13654,7.38343,7.47471s-3.04525,7.38343-7.38343,7.38343c-4.33743,0-7.47471-3.04525-7.47471-7.38343Zm1.1994,15.5046h12.55138v49.74312h-12.55138v-49.74312Z"/>
    <path class="cls-1" d="m214.59233,199.77906v10.15184c-3.78375,1.56827-8.21395,2.30751-12.64341,2.30751-9.13651,0-15.31979-6.27606-15.31979-15.69016v-24.73314h-8.21395v-10.24312h8.21395v-14.5813h12.55138v14.5813h14.67333v10.24312h-14.67333v22.15029c0,4.52224,2.76841,7.47471,6.829,7.47471,2.86119,0,5.72163-.4609,8.58282-1.66105Z"/>
    <path class="cls-1" d="m264.05637,180.02907v31.28605h-12.08973l-.27684-7.10659c-3.32284,5.1687-9.04448,8.02989-15.13573,8.02989-10.3359,0-17.25768-6.18329-17.25768-15.41182,0-9.59816,8.49079-15.87422,21.22624-15.87422,3.41487,0,7.19862.36962,10.98236,1.10736v-.9233c0-6.64419-4.43021-10.61274-11.9977-10.61274-4.7063,0-8.49005,1.38421-11.62808,3.96856l-5.44479-7.38343c5.35276-4.33668,11.62808-6.46013,20.30293-6.46013,12.73619,0,21.31902,7.66027,21.31902,19.38038Zm-12.55138,10.52146c-3.23006-.64646-6.55216-1.01608-9.41335-1.01608-5.90644,0-9.69019,2.76991-9.69019,7.01381,0,4.06133,2.67638,6.73846,7.7523,6.73846,5.81366,0,11.25921-4.61502,11.35124-12.73619Z"/>
    <path class="cls-1" d="m276.32792,139.33042h12.55138v71.98469h-12.55138v-71.98469Z"/>
    <path class="cls-2" d="m355.69379,186.39791c0,15.59589-10.70552,25.8405-23.9954,25.8405-6.73697,0-11.81289-2.58435-15.22701-7.10659l-.27684,6.18329h-15.13573v-71.98469h15.68941v27.59433c3.41413-4.33818,8.39801-6.82975,14.95017-6.82975,13.28987,0,23.9954,10.61274,23.9954,26.3029Zm-16.15032-.18556c0-7.56749-4.61502-12.73469-11.35198-12.73469-6.829,0-11.44327,5.1672-11.44327,12.64341,0,7.65877,4.61427,12.64341,11.44327,12.64341,6.73697,0,11.35198-5.07592,11.35198-12.55213Z"/>
    <path class="cls-2" d="m413.09344,191.65789h-34.51536c.92255,5.1687,3.69097,8.30524,9.69019,8.30524,4.24465,0,7.7523-1.75233,10.15109-4.61352l12.18251,5.90644c-4.33743,6.55141-12.36657,10.98236-22.14954,10.98236-15.87347,0-26.48622-10.15184-26.48622-25.56366,0-15.87422,10.24387-26.57975,25.74847-26.57975,15.41182,0,25.74773,10.05906,25.74773,25.28682,0,2.12345-.18406,4.52224-.36887,6.27606Zm-34.42333-10.52146h18.36505c-1.01459-5.72089-4.06059-8.76763-9.32057-8.76763-5.1687,0-8.02914,3.13803-9.04448,8.76763Z"/>
    <path class="cls-2" d="m470.58512,191.65789h-34.51536c.92255,5.1687,3.69097,8.30524,9.69019,8.30524,4.24465,0,7.7523-1.75233,10.15109-4.61352l12.18251,5.90644c-4.33743,6.55141-12.36657,10.98236-22.14954,10.98236-15.87347,0-26.48622-10.15184-26.48622-25.56366,0-15.87422,10.24387-26.57975,25.74847-26.57975,15.41182,0,25.74773,10.05906,25.74773,25.28682,0,2.12345-.18406,4.52224-.36887,6.27606Zm-34.42333-10.52146h18.36505c-1.01459-5.72089-4.06059-8.76763-9.32057-8.76763-5.1687,0-8.02914,3.13803-9.04448,8.76763Z"/>
  </g>
  <g>
    <g>
      <polygon class="cls-1" points="439.82844 30.25646 420.1832 30.25646 426.50312 41.20285 433.50897 41.20285 458.29513 84.13367 433.50897 127.06405 383.93664 127.06405 380.25243 120.68266 367.61326 120.68266 377.61717 138.01044 439.82844 138.01044 470.93408 84.13367 439.82844 30.25646"/>
      <polygon class="cls-1" points="338.82198 100.80759 314.03581 57.87721 338.82198 14.94639 388.3943 14.94639 397.23346 30.25646 409.87285 30.25646 394.71378 4 332.5025 4 301.39686 57.87721 332.5025 111.75398 362.6122 111.75398 356.29228 100.80759 338.82198 100.80759"/>
    </g>
    <path class="cls-2" d="m377.61717,30.25646l-31.02858,53.74359,16.02362,27.75393h32.10157l31.10564-53.87677-15.94667-27.62075h-32.25557Zm10.77713,70.55113h-19.61696l-9.62686-16.67392,24.78616-42.93082h19.61685l9.62698,16.67436-24.78616,42.93038Z"/>
  </g>
</svg>